:SAMPLES-PER-SECOND 30
:FULLY-SPECIFIED
:DEGREES
257
root  9.00128 38.976 4.63861 -144.02 -82.6537 145.995
RightUpLeg  -12.3675 -2.50857 -14.1212
RightLeg  24.6564 -3.49918 -1.97208
RightFoot  -8.12548 -0.422021 13.0014
RightToes  -5.28226e-011 1.30204e-014 -6.03759e-014
Spine  16.6056 -4.4409 -7.04405
Spine1  -11.0222 -5.45021 2.5588
HEad  -21.2322 -30.4194 6.83294
LeftShoulder1  0.72783 -1.83894 -5.86143
LeftArm  33.6874 -26.7224 -88.4079
LeftForeArm  87.3878 -80.203 -69.2527
LeftHand  -0.794187 -4.5063 9.58877
RightShoulder  1.26302 2.40856 14.5674
RightArm  0.667024 -25.9923 25.4191
RightForeArm  31.3349 -6.42018 15.695
RightHand  0.0538374 -5.87149 -16.911
LeftUpLeg  -11.689 1.13643 16.5514
LeftLeg  40.6223 4.12445 3.70158
LeftFoot  -5.29129 1.23433 -22.4436
LeftToes  -2.42178e-010 -1.66495e-011 -2.88221e-011
258
root  8.99039 38.8952 4.61735 -164.52 -80.4324 164.942
RightUpLeg  -12.0894 -1.32354 -12.0773
RightLeg  25.732 -2.75589 -1.6707
RightFoot  -8.09405 -0.377293 11.2872
RightToes  -5.28226e-011 1.30204e-014 -6.03759e-014
Spine  17.9468 -4.81891 -6.3025
Spine1  -9.87139 -5.82919 4.2692
HEad  -35.4669 -58.7003 26.7558
LeftShoulder1  0.48248 -1.20395 -2.05074
LeftArm  40.0972 -36.8679 -96.8008
LeftForeArm  138.865 -79.3772 -120.789
LeftHand  -0.619346 -4.10318 7.83615
RightShoulder  1.16428 2.52733 12.2529
RightArm  7.29677 -26.049 16.9515
RightForeArm  31.4513 -5.86046 16.428
RightHand  0.000268495 -5.4536 -18.9776
LeftUpLeg  -13.0085 -0.0723503 19.7274
LeftLeg  67.2494 0.957233 3.26442
LeftFoot  -8.43309 0.559439 -19.2583
LeftToes  -2.42178e-010 -1.66495e-011 -2.88221e-011
259
root  8.90967 38.8418 4.54412 -172.1 -76.1861 171.45
RightUpLeg  -12.0698 0.978968 -11.4776
RightLeg  26.1079 -1.44394 -1.00011
RightFoot  -8.59858 -0.301682 10.1503
RightToes  -5.28226e-011 1.30204e-014 -6.03759e-014
Spine  18.0885 -4.5706 -6.69585
Spine1  -9.22396 -5.5772 4.33421
HEad  -50.8759 -70.4822 47.4346
LeftShoulder1  0.308339 -0.666165 1.19368
LeftArm  42.9981 -43.4704 -100.749
LeftForeArm  156.527 -76.3387 -138.304
LeftHand  -0.453932 -3.67967 6.07819
RightShoulder  0.946797 1.94875 10.1134
RightArm  14.9009 -23.6627 10.0669
RightForeArm  31.7669 -4.11435 17.2759
RightHand  0.0230139 -5.5907 -19.6271
LeftUpLeg  -11.6315 -0.592046 21.5801
LeftLeg  91.9496 -0.404058 1.76163
LeftFoot  -11.603 0.023401 -14.9693
LeftToes  -2.42178e-010 -1.66495e-011 -2.88221e-011
260
root  8.85184 38.8257 4.46048 -173.353 -73.0029 172.888
RightUpLeg  -12.8981 2.73307 -11.3623
RightLeg  25.7411 -0.0148337 -0.230735
RightFoot  -8.5093 -0.309504 10.1331
RightToes  -5.28226e-011 1.30204e-014 -6.03759e-014
Spine  17.0608 -4.69545 -8.24459
Spine1  -9.26595 -5.94184 5.40865
HEad  -44.6272 -68.1884 43.723
LeftShoulder1  0.21809 -0.160152 2.81572
LeftArm  41.6209 -46.6299 -99.5444
LeftForeArm  161.354 -74.6226 -143.761
LeftHand  -0.408304 -3.1475 5.80215
RightShoulder  0.771203 1.37336 8.38921
RightArm  18.1561 -19.9232 4.97281
RightForeArm  30.3286 -3.358 17.5964
RightHand  0.0082221 -5.51151 -18.7559
LeftUpLeg  -10.2317 -2.71796 22.8371
LeftLeg  114.063 -0.084304 -0.26374
LeftFoot  -12.4189 -0.0594956 -13.9879
LeftToes  -2.42178e-010 -1.66495e-011 -2.88221e-011
261
root  9.06697 38.7659 4.66763 -175.689 -73.1246 176.366
RightUpLeg  -14.4027 3.01153 -10.484
RightLeg  25.5968 -0.33916 -0.399102
RightFoot  -7.67616 -0.39427 10.6575
RightToes  -5.28226e-011 1.30204e-014 -6.03759e-014
Spine  16.2035 -6.16251 -8.6249
Spine1  -8.24654 -7.16844 8.9978
HEad  -34.7112 -62.1234 34.6591
LeftShoulder1  0.209903 0.203845 2.37846
LeftArm  38.7255 -47.1791 -95.304
LeftForeArm  162.76 -74.0013 -145.413
LeftHand  -0.430857 -2.65091 6.43673
RightShoulder  0.669999 1.20882 6.58388
RightArm  16.5425 -16.9833 2.35795
RightForeArm  27.3187 -3.83796 17.5814
RightHand  -0.0434956 -5.18627 -17.9736
LeftUpLeg  -10.2381 -7.25106 24.5736
LeftLeg  131.297 1.26423 -1.95186
LeftFoot  -12.5213 -0.0424858 -11.6855
LeftToes  -2.42178e-010 -1.66495e-011 -2.88221e-011
262
root  9.23111 38.8509 4.80913 -177.222 -74.7494 178.591
RightUpLeg  -14.3625 2.37066 -9.847
RightLeg  24.5146 -1.60123 -1.02166
RightFoot  -6.86533 -0.468996 10.7752
RightToes  -5.28226e-011 1.30204e-014 -6.03759e-014
Spine  15.8033 -7.16746 -8.74281
Spine1  -7.18888 -8.03968 11.4348
HEad  -38.8533 -62.9473 39.4061
LeftShoulder1  0.25794 -0.114821 1.51719
LeftArm  36.4117 -44.8186 -90.8079
LeftForeArm  160.978 -75.1086 -142.439
LeftHand  -0.445601 -2.89193 6.48738
RightShoulder  0.609751 0.935083 6.03548
RightArm  13.7991 -15.6975 1.51245
RightForeArm  26.4963 -4.50571 17.3772
RightHand  -0.0698419 -5.01123 -17.783
LeftUpLeg  -11.8331 -9.5336 25.43
LeftLeg  137.844 -1.48532 0.958403
LeftFoot  -12.5718 -0.0171368 -8.1598
LeftToes  -2.42178e-010 -1.66495e-011 -2.88221e-011
263
root  9.01655 39.03 4.63989 -176.638 -75.3231 177.616
RightUpLeg  -12.5325 1.94723 -9.90667
RightLeg  22.8235 -1.94902 -1.12435
RightFoot  -6.66262 -0.478018 10.5616
RightToes  -5.28226e-011 1.30204e-014 -6.03759e-014
Spine  15.636 -6.44592 -9.38843
Spine1  -7.64706 -7.73761 11.9344
HEad  -49.0013 -67.8249 49.9096
LeftShoulder1  0.381238 -0.813053 -0.409556
LeftArm  34.9413 -39.2277 -85.5892
LeftForeArm  153.997 -77.4527 -133.756
LeftHand  -0.456513 -3.8764 5.9839
RightShoulder  0.515629 0.324567 5.73154
RightArm  12.9533 -15.2665 3.36762
RightForeArm  28.5691 -4.5507 17.2506
RightHand  -0.0644118 -5.04391 -17.5716
LeftUpLeg  -14.9971 -6.53674 24.0427
LeftLeg  130.802 -7.00338 7.25368
LeftFoot  -11.6116 0.0576974 -6.6045
LeftToes  -2.42178e-010 -1.66495e-011 -2.88221e-011
264
root  8.70235 39.2229 4.41435 -175.003 -74.9744 175.016
RightUpLeg  -10.2543 2.0997 -10.3156
RightLeg  21.1093 -1.72051 -0.948215
RightFoot  -6.27674 -0.497471 10.2541
RightToes  -5.28226e-011 1.30204e-014 -6.03759e-014
Spine  15.8279 -4.8542 -10.2429
Spine1  -8.57321 -6.67081 11.2959
HEad  -52.5668 -69.0369 53.3086
LeftShoulder1  0.571585 -1.722 -2.82612
LeftArm  34.2109 -31.4508 -79.9014
LeftForeArm  136.216 -79.9816 -114.914
LeftHand  -0.498603 -4.46392 6.15683
RightShoulder  0.423919 -0.309623 5.53105
RightArm  13.581 -14.726 7.61912
RightForeArm  29.5733 -4.19157 17.3518
RightHand  -0.0805907 -4.9287 -17.2678
LeftUpLeg  -15.3093 -2.83648 21.7509
LeftLeg  113.773 -4.905 8.69497
LeftFoot  -12.9341 -0.0414923 -7.88949
LeftToes  -2.42178e-010 -1.66495e-011 -2.88221e-011
265
root  8.59675 39.3054 4.39151 -175.764 -75.131 174.969
RightUpLeg  -8.68684 2.13691 -10.1939
RightLeg  20.2203 -1.85799 -0.971859
RightFoot  -6.0478 -0.504368 9.99157
RightToes  -5.28226e-011 1.30204e-014 -6.03759e-014
Spine  16.11 -3.72204 -9.75407
Spine1  -8.4098 -5.62488 10.5202
HEad  -48.2002 -67.0317 47.8036
LeftShoulder1  0.765354 -2.46166 -4.98135
LeftArm  34.0502 -22.75 -74.9074
LeftForeArm  93.7858 -80.3426 -71.595
LeftHand  -0.538434 -4.58553 6.55407
RightShoulder  0.424366 -0.426568 6.0995
RightArm  9.95925 -13.2752 12.9392
RightForeArm  30.7091 -4.78699 17.0126
RightHand  -0.127456 -4.60597 -17.1751
LeftUpLeg  -13.6351 -1.41535 20.4389
LeftLeg  92.477 -0.503272 1.38244
LeftFoot  -13.3629 -0.166232 -14.767
LeftToes  -2.42178e-010 -1.66495e-011 -2.88221e-011
266
root  8.53014 39.3919 4.39063 -175.932 -75.6898 174.758
RightUpLeg  -7.29007 1.61479 -10.2519
RightLeg  18.8614 -1.97387 -0.964353
RightFoot  -6.09355 -0.504914 10.0827
RightToes  -5.28226e-011 1.30204e-014 -6.03759e-014
Spine  15.7252 -2.86054 -8.79705
Spine1  -7.99175 -4.65492 8.53283
HEad  -45.8088 -66.9682 44.6468
LeftShoulder1  0.914762 -2.75934 -6.98074
LeftArm  33.7459 -13.4426 -70.588
LeftForeArm  55.4334 -72.8051 -31.2003
LeftHand  -0.475038 -5.46196 5.42036
RightShoulder  0.55212 0.0522935 8.03226
RightArm  1.77077 -10.5983 18.6109
RightForeArm  33.6393 -6.54102 16.0493
RightHand  -0.180714 -4.25455 -17.4011
LeftUpLeg  -11.0087 -0.719343 19.1825
LeftLeg  67.9042 -1.82442 -4.57142
LeftFoot  -12.0101 -0.0633579 -22.2036
LeftToes  -2.42178e-010 -1.66495e-011 -2.88221e-011
267
root  8.4798 39.3285 4.53505 -173.39 -76.2244 172.474
RightUpLeg  -7.50986 1.06659 -11.2615
RightLeg  18.901 -1.84326 -0.916103
RightFoot  -6.47864 -0.507775 10.9063
RightToes  -5.28226e-011 1.30204e-014 -6.03759e-014
Spine  14.957 -2.28005 -7.30457
Spine1  -8.008 -3.59394 5.0071
HEad  -40.0126 -67.7263 39.8792
LeftShoulder1  1.05043 -2.87 -9.06806
LeftArm  33.3588 -4.66317 -66.5307
LeftForeArm  41.3324 -58.2307 -14.5009
LeftHand  -0.375685 -6.52778 3.96705
RightShoulder  0.725572 0.555712 10.7207
RightArm  2.47597 -7.48559 25.2993
RightForeArm  29.5011 -4.67038 15.9962
RightHand  -0.334618 -3.30252 -18.0509
LeftUpLeg  -7.60827 0.0729363 17.0571
LeftLeg  43.1237 -4.76236 -4.49167
LeftFoot  -11.0965 0.117335 -25.0315
LeftToes  -2.42178e-010 -1.66495e-011 -2.88221e-011
